<?xml version="1.0" encoding="iso-8859-1"?>
<!-- Generator: Adobe Illustrator 16.0.0, SVG Export Plug-In . SVG Version: 6.00 Build 0)  -->
<!DOCTYPE svg PUBLIC "-//W3C//DTD SVG 1.1//EN" "http://www.w3.org/Graphics/SVG/1.1/DTD/svg11.dtd">
<svg version="1.1" id="Capa_1" xmlns="http://www.w3.org/2000/svg" xmlns:xlink="http://www.w3.org/1999/xlink" x="0px" y="0px"
	 width="380.539px" height="380.539px" viewBox="0 0 380.539 380.539" style="enable-background:new 0 0 380.539 380.539;"
	 xml:space="preserve">
<g>
	<g>
		<path fill="#FFFFFF" d="M198.155,55.104c-76.305,0-138.383,62.076-138.383,138.378c0,76.303,62.078,138.379,138.383,138.379
			s138.381-62.076,138.381-138.379C336.536,117.18,274.459,55.104,198.155,55.104z M319.221,193.482
			c0,66.754-54.312,121.062-121.065,121.062c-66.756,0-121.067-54.309-121.067-121.062c0-66.754,54.312-121.062,121.067-121.062
			S319.221,126.728,319.221,193.482z"/>
		<g>
			<path fill="#FFFFFF" d="M198.154,263.965c-39.066,0-70.847-31.777-70.847-70.84c0-39.061,31.779-70.842,70.847-70.842
				c39.062,0,70.844,31.781,70.844,70.842C268.997,232.188,237.216,263.965,198.154,263.965z"/>
		</g>
		<g>
			<path fill="#FFFFFF" d="M45.458,310.579c0,10.511-6.942,19.03-15.506,19.03l0,0c-8.564,0-15.507-8.521-15.507-19.03v-71.983
				c0-10.51,6.942-19.029,15.507-19.029l0,0c8.563,0,15.506,8.521,15.506,19.029V310.579z"/>
			<path fill="#FFFFFF" d="M16.688,147.953c1.705,1.608,3.101,4.843,3.101,7.188l0.001,56.61c0,2.004,1.271,1.629,1.964,1.097
				c2.378-1.83,5.185-2.893,8.198-2.893c2.918,0,5.644,0.998,7.972,2.725c0.807,0.598,2.27,0.592,2.27-0.841l0.001-56.695
				c0-2.344,1.393-5.582,3.098-7.188c0,0,17.515-16.555,16.656-37.179c-0.607-14.617-7.006-53.775-7.006-53.775
				c-0.379-2.318-1.915-4.207-3.412-4.207c-1.501,0-2.707,1.921-2.678,4.266l0.491,44.772c0.028,2.347-0.561,4.268-1.306,4.268
				c-0.744,0-1.544-1.909-1.777-4.242l-4.533-44.821c-0.24-2.336-1.425-4.242-2.64-4.242c-1.215,0-2.338,1.915-2.502,4.251
				l-3.088,44.801c-0.161,2.342-0.902,4.254-1.644,4.254c-0.745,0-1.469-1.915-1.611-4.257L25.5,57.047
				c-0.144-2.339-1.404-4.251-2.806-4.251c-1.402,0-2.68,1.915-2.841,4.251l-3.091,44.805c-0.161,2.338-0.899,4.253-1.641,4.25
				c-0.745,0-1.39-1.918-1.442-4.265l-0.951-44.778c-0.047-2.345-1.194-4.263-2.543-4.263c-1.352,0-2.768,1.892-3.145,4.21
				c0,0-6.398,39.161-7.009,53.772C-0.828,131.401,16.688,147.953,16.688,147.953z"/>
		</g>
		<g>
			<path fill="#FFFFFF" d="M380.539,310.579c0,10.511-6.941,19.03-15.506,19.03l0,0c-8.563,0-15.507-8.521-15.507-19.03v-71.983
				c0-10.51,6.942-19.029,15.507-19.029l0,0c8.563,0,15.506,8.521,15.506,19.029V310.579z"/>
			<path fill="#FFFFFF" d="M355.146,186.253v3.371l0.005,21.813c0,2.918,1.098,1.842,1.688,1.39c2.377-1.819,5.186-2.873,8.193-2.873
				c3.313,0,6.376,1.286,8.894,3.462c0.575,0.498,1.637,0.52,1.637-1.256v-25.189h-0.003l0.003-132.316
				c0-7.226-2.707-7.736-7.604-2.418c-11.23,12.197-23.938,26.808-23.938,61.847v3.448c-0.003,5.689,0.744,16.21,1.652,23.38
				l4.77,19.93C353.026,167.593,355.146,179.025,355.146,186.253z"/>
		</g>
	</g>
</g>
<g>
</g>
<g>
</g>
<g>
</g>
<g>
</g>
<g>
</g>
<g>
</g>
<g>
</g>
<g>
</g>
<g>
</g>
<g>
</g>
<g>
</g>
<g>
</g>
<g>
</g>
<g>
</g>
<g>
</g>
</svg>
